<svg xmlns="http://www.w3.org/2000/svg" viewBox="9 13 612.5 81.7" enable-background="new 9 13 612.5 81.7"><g fill="#2B2929"><path d="M293.8 95.6l-21.7-29.2 11.7-10.8 28.8 38.8 1.7 2.5H293.9l-.1-1.3zm-32.1.8H245.8v-83H263.4v31.3l1.3-1.3L291 14.2l.4-.4h22.1l-2.5 2.5-47.1 48.8v31.3h-2.2zm-61.3-69.6c-2.1 0-3.8.4-5.4.8-1.7.4-3.3.8-4.6 1.7-1.3.8-2.9 1.7-3.8 2.9-1.3.8-2.1 2.1-3.3 3.3-.8 1.3-1.7 2.9-2.5 4.2-.8 1.7-1.3 3.3-1.7 4.6-.4 1.7-.8 3.3-1.3 5 0 1.7-.4 3.3-.4 5 0 2.1 0 3.8.4 5.4.4 1.7.8 3.3 1.3 5 .4 1.7 1.3 3.3 1.7 4.6.8 1.3 1.7 2.9 2.5 4.2.8 1.3 2.1 2.5 3.3 3.3 1.3.8 2.5 2.1 3.8 2.5 1.3.8 2.9 1.3 4.6 1.7 1.7.4 3.3.4 5.4.4 2.9 0 5.8-.4 8.8-1.7 1.3-.4 2.9-1.3 3.8-2.1 1.3-.8 2.5-1.7 3.3-2.9 1.3-1.3 2.1-2.5 2.9-3.8.8-1.3 1.7-2.9 2.5-5 .8-1.7 1.3-3.8 1.7-5.8.4-2.1.4-4.2.4-6.7s0-4.6-.4-6.7c-.4-2.1-.8-4.2-1.7-5.8-.8-1.7-1.7-3.3-2.5-5-.8-1.3-2.1-2.9-2.9-3.8-1.3-1.3-2.1-2.1-3.3-2.9-1.3-.8-2.5-1.7-3.8-2.1-1.3-.4-2.9-.8-4.2-1.3-2.1 1.4-3.4 1-4.6 1zm-1.3 69.6c-2.9 0-5.8-.4-8.3-.8-2.9-.4-5.4-1.3-7.9-2.1s-5-2.1-7.1-3.8c-2.1-1.3-4.2-2.9-5.8-5-1.7-1.7-3.3-3.8-4.6-5.8-1.3-2.1-2.5-4.6-3.8-7.1-.8-2.5-1.7-5-2.1-7.9-.4-2.5-.8-5.4-.8-8.3 0-3.3.4-6.3.8-9.2.4-2.9 1.3-5.8 2.5-8.3 1.3-2.5 2.5-5 3.8-7.1 1.3-2.1 3.3-4.2 5-6.3 2.1-1.7 4.2-3.3 6.3-5 2.1-1.3 4.6-2.5 7.1-3.8 2.5-.8 5.4-1.7 8.3-2.1 2.9-.4 5.8-.8 8.8-.8 2.9 0 5.8.4 8.3.8 2.9.4 5.4 1.3 7.9 2.1s5 2.1 7.1 3.3c2.1 1.3 4.2 2.9 5.8 4.6 1.7 1.7 3.3 3.8 4.6 5.8 1.3 2.1 2.5 4.6 3.8 7.1.8 2.5 1.7 5 2.1 7.9s.8 5.8.8 8.8c0 6.7-.8 12.5-2.9 17.9-2.1 5.4-5 10-9.2 13.8-1.7 1.7-3.8 3.3-6.3 4.6-2.1 1.3-4.6 2.5-7.1 3.3-2.5.8-5 1.7-7.9 2.1-2.9.9-5.8 1.3-9.2 1.3zm-85.9-69.6c-2.1 0-3.8.4-5.4.8-1.7.4-3.3.8-4.6 1.7-1.3.8-2.9 1.7-3.8 2.9-1.3.8-2.5 2.1-3.3 3.3-.8 1.3-1.7 2.9-2.5 4.2-.8 1.7-1.3 3.3-1.7 4.6-.4 1.7-.8 3.3-1.3 5 0 1.7-.4 3.3-.4 5 0 3.8.4 7.1 1.3 10.4.4 1.7 1.3 3.3 1.7 4.6.8 1.3 1.7 2.9 2.5 4.2.8 1.3 2.1 2.5 3.3 3.3 1.3.8 2.5 2.1 3.8 2.5 1.3.8 2.9 1.3 4.6 1.7 1.7.4 3.8.4 5.4.4 2.9 0 5.8-.4 8.8-1.7 1.3-.4 2.5-1.3 3.8-2.1 1.3-.8 2.5-1.7 3.3-2.9.8-1.3 2.1-2.5 2.9-3.8.8-1.3 1.7-2.9 2.5-5 .8-1.7 1.3-3.8 1.7-5.8.4-2.1.4-4.2.4-6.7 0-5-.8-9.2-2.1-12.5-.8-1.7-1.7-3.3-2.5-5-.8-1.3-2.1-2.9-2.9-3.8-1.3-1.3-2.1-2.1-3.3-2.9-1.3-.8-2.5-1.7-3.8-2.1s-2.9-.8-4.2-1.3c-1.7 1.4-2.9 1-4.2 1zM112 96.4c-2.9 0-5.8-.4-8.8-.8-2.9-.4-5.4-1.3-7.9-2.1s-5-2.1-7.1-3.8c-2.1-1.3-4.2-2.9-5.8-5-1.7-1.7-3.4-3.7-4.6-5.8-1.3-2.1-2.5-4.6-3.8-7.1-.8-2.5-1.7-5-2.1-7.9-.4-2.5-.8-5.4-.8-8.3 0-3.3.4-6.3.8-9.2.4-2.9 1.3-5.8 2.1-8.3.8-2.5 2.5-5 3.8-7.1 1.3-2.1 3.3-4.2 5-6.3 1.7-1.7 3.8-3.3 6.3-5 2.1-1.3 4.6-2.5 7.1-3.8 2.5-1.3 5.4-1.7 8.3-2.1s5.8-.8 8.8-.8 5.8.4 8.8.8c2.9.4 5.4 1.3 7.9 2.1 5 2.1 9.2 4.6 12.9 8.3 1.7 1.7 3.3 3.8 4.6 5.8 1.3 2.1 2.5 4.6 3.8 7.1.8 2.5 1.7 5 2.1 7.9.4 2.9.8 5.8.8 8.8 0 13.3-4.2 23.8-12.5 31.7-1.7 1.7-3.8 3.3-5.8 4.6-2.1 1.3-4.6 2.5-7.1 3.3-2.5.8-5 1.7-7.9 2.1-2.7.5-5.6.9-8.9.9zM10.3 89.7V13.4H27.9v61.7L10.3 91.8v-2.1zm59.6-6.2v13H14.8l15.4-14.6h39.2v1.7h.5zM602.3 96L581 66.8 592.7 56l28.8 38.8 1.7 2.5H602.8l-.5-1.3zm-32.1.8H554.3v-83H571.9v31.3l.8-.8L599 15.1l.4-.4H621.1l-2.5 2.5L571.4 66v31.3h-1.3v-.5zm-61.3-69.6c-2.1 0-3.8.4-5.4.4-1.7.4-3.3.8-4.6 1.7-1.7.8-2.9 1.7-4.2 2.9l-3.3 3.3c-.8 1.3-1.7 2.9-2.5 4.2-.8 1.7-1.3 3.3-1.7 5-.4 1.7-.8 3.3-.8 5-.4 1.7-.4 3.3-.4 5 0 2.1 0 3.8.4 5.4.4 1.7.8 3.3 1.3 5 .4 1.7 1.3 3.3 1.7 4.6.8 1.7 1.7 2.9 2.5 4.2.8 1.3 2.1 2.5 3.3 3.3 1.3.8 2.5 2.1 4.2 2.9 1.3.8 2.9 1.3 4.6 1.7 1.7.4 3.3.4 5.4.4 2.9 0 5.8-.4 8.8-1.7 1.3-.4 2.5-1.3 3.8-2.1 1.3-.8 2.5-1.7 3.3-2.9.8-1.3 2.1-2.5 2.9-3.8.8-1.3 1.7-2.9 2.5-5 .8-1.7 1.3-3.8 1.7-5.8.4-2.1.4-4.2.4-6.7s0-4.6-.4-7.1c-.4-2.1-.8-4.2-1.7-5.8-.8-1.7-1.7-3.3-2.5-5-.8-1.3-2.1-2.5-2.9-3.8-1.3-1.3-2.1-2.1-3.3-2.9-1.3-.8-2.5-1.7-3.8-2.1s-2.9-.8-4.2-1.3c-2.2 1.4-3.9 1-5.1 1zm-.8 69.6c-2.9 0-5.8-.4-8.8-.8-2.9-.4-5.4-1.3-7.9-2.1s-4.6-2.1-7.1-3.8c-2.1-1.3-4.2-2.9-5.8-5-1.7-1.7-3.3-3.8-4.6-5.8-1.3-2.1-2.5-4.6-3.8-7.1-.8-2.5-1.7-5-2.1-7.9-.4-2.9-.8-5.4-.8-8.3 0-3.3.4-6.3.8-9.2.4-2.9 1.3-5.8 2.5-8.3.8-2.5 2.1-5 3.8-7.1 1.3-2.1 3.3-4.2 5-6.3 1.7-1.7 3.8-3.3 6.3-5 2.1-1.3 4.6-2.5 7.1-3.8 2.5-.8 5.4-1.7 8.3-2.1 2.9-.4 5.8-.8 8.8-.8 2.9 0 5.8 0 8.8.8 2.9.4 5.4 1.3 7.9 2.1s5 2.1 7.1 3.3c2.1 1.3 4.2 2.9 5.8 4.6 1.7 1.7 3.3 3.8 4.6 5.8 1.3 2.1 2.5 4.6 3.8 7.1.8 2.5 1.7 5 2.1 7.9s.8 5.8.8 8.8c0 6.7-.8 12.5-2.9 17.9-2.1 5.4-5 10-9.2 13.8-1.7 1.7-3.8 3.3-5.8 4.6-2.1 1.3-4.6 2.5-7.1 3.3-2.5.8-5 1.7-7.9 2.1-3.9.9-6.8 1.3-9.7 1.3zm-86.3-69.6c-2.1 0-3.8.4-5.4.4-1.7.4-3.3.8-4.6 1.7-1.3.8-2.9 1.7-4.2 2.9l-3.3 3.3c-1.3 1.3-1.7 2.9-2.5 4.2-.8 1.7-1.3 3.3-1.7 5-.4 1.7-.8 3.3-1.3 5-.4 1.7-.4 3.3-.4 5 0 2.1 0 3.8.4 5.4.4 1.7.4 3.3 1.3 5 .4 1.7.8 3.3 1.7 4.6.8 1.7 1.7 2.9 2.5 4.2.8 1.3 2.1 2.5 3.3 3.3 1.3.8 2.5 2.1 3.8 2.9 1.3.8 2.9 1.3 4.6 1.7 1.7.4 3.3.4 5.4.4 2.9 0 5.8-.4 8.8-1.7 1.3-.4 2.5-1.3 3.8-2.1 1.3-.8 2.5-1.7 3.3-2.9 1.3-1.3 2.1-2.5 2.9-3.8.8-1.3 1.7-2.9 2.5-5 .8-1.7 1.3-3.8 1.7-5.8.4-2.1.4-4.2.4-6.7s0-4.6-.4-7.1c-.4-2.1-.8-4.2-1.7-5.8-.8-1.7-1.7-3.3-2.5-5-.8-1.3-2.1-2.5-2.9-3.8-1.3-1.3-2.1-2.1-3.3-2.9-1.3-.8-2.5-1.7-3.8-2.1-1.3-.4-2.9-.8-4.2-1.3-1.7 1.4-3 1-4.2 1zm-.9 69.6c-2.9 0-5.8-.4-8.3-.8-2.9-.4-5.4-1.3-7.9-2.1s-5-2.1-7.1-3.8c-2.1-1.3-4.2-2.9-5.8-5-1.7-1.7-3.3-3.8-4.6-5.8-1.3-2.1-2.5-4.6-3.3-7.1-.8-2.5-1.7-5-2.1-7.9-.4-2.9-.8-5.4-.8-8.3 0-3.3.4-6.3.8-9.2.4-2.9 1.3-5.8 2.5-8.3 1.3-2.5 2.1-5 3.8-7.1 1.7-2.1 3.3-4.2 5-6.3 2.1-1.7 4.2-3.3 6.3-5 2.1-1.3 4.6-2.5 7.1-3.8 2.5-.8 5.4-1.7 8.3-2.1 2.9-.4 5.8-.8 8.8-.8s5.8 0 8.3.8c2.9.4 5.4 1.3 7.9 2.1s5 2.1 7.1 3.3c2.1 1.3 4.2 2.9 5.8 4.6 1.7 1.7 3.3 3.8 5 5.8 1.3 2.1 2.5 4.6 3.3 7.1.8 2.5 1.7 5 2.1 7.9.4 2.9.8 5.8.8 8.8 0 6.7-.8 12.5-2.9 17.9-2.1 5.4-5 10-9.2 13.8-2.1 1.7-3.8 3.3-6.3 4.6-2.5 1.3-4.6 2.5-7.1 3.3-2.5.8-5 1.7-7.9 2.1-3.7.9-6.7 1.3-9.6 1.3zm-78.4-50c2.5 0 4.6-.4 6.7-.8 1.7-.4 3.3-1.3 5-2.1 1.3-.8 2.5-1.7 2.9-2.9.8-1.3.8-2.5.8-3.8 0-1.7-.4-2.9-.8-4.2-.4-1.3-1.7-2.1-2.5-2.9-1.3-.8-2.9-1.3-4.6-1.7-2-.4-4.1-.4-7-.4h-6.3v18.8h5.8zm-3.7 50H333c-1.7 0-3.3 0-5-.4l-3.8-.4h-.8l13.3-12.5h8.7c.8 0 2.1 0 3.3-.4.8 0 2.1-.4 2.9-.4.8-.4 2.1-.8 2.9-1.3s1.7-.8 2.5-1.7c.8-.8 1.7-1.3 2.1-2.1.4-.8.8-1.7 1.3-2.5.4-.8.4-2.1.4-3.3 0-1.3 0-2.5-.4-3.8-.4-.8-.8-1.7-1.7-2.5-.8-.8-1.7-1.3-2.5-2.1-.8-.4-1.7-.8-2.9-1.3-1.3-.4-2.1-.8-3.3-.8-1.3-.4-2.1-.4-3.3-.4h-11.2v14.6L318 92.2V15.9h2.5c1.7 0 3.3-.4 5.4-.4 1.3-.4 2.9-.4 4.2-.4 1.7 0 3.3-.4 5.4-.4h5.4c2.9 0 5.8 0 8.3.4 2.5.4 5 .8 6.7 1.3 2.1.4 3.8 1.3 5.4 2.1 1.7.8 3.3 1.7 4.6 2.9 1.3.8 2.5 2.1 3.3 3.3.8 1.3 2.1 2.5 2.9 3.8.8 1.3 1.3 2.9 1.7 4.2.4 1.7.8 2.9.8 4.6 0 1.7-.4 3.8-.8 5.4-.8 1.7-1.7 3.3-2.9 5-1.3 1.7-2.5 2.9-4.2 4.2-.8.4-1.7 1.3-2.5 1.7.8.4 1.7.8 2.9 1.7.8.4 2.1 1.3 2.9 2.1l2.5 2.5c.8.8 1.7 2.1 2.1 2.9.8.8 1.3 2.1 1.7 3.3.4 1.3.8 2.5 1.3 3.8.4 1.3.4 2.5.4 3.8 0 1.7 0 3.3-.4 4.6-.4 1.7-.8 2.9-1.7 4.2-.8 1.3-1.7 2.5-2.9 3.8-.8 1.3-2.1 2.5-3.8 3.8-1.7 1.3-3.3 2.5-5.4 3.8-2.1.8-4.2 1.7-6.7 2.5s-5.4 1.3-8.3 1.3c-2.5-.9-6.3-.9-10-.9z"/></g></svg>