<svg xmlns="http://www.w3.org/2000/svg" viewBox="0 0 612 357.4" enable-background="new 0 0 612 357.4"><path fill="#4BBEFF" d="M612 357.4H0V0h612v357.4zM24.5 332.9h563V24.5h-563v308.4z"/><path fill="#2B2929" d="M497.9 171.8l-31.3-43.1 17.1-16.2 42.1 56.3 2.9 3.9h-30.4l-.4-.9zm-47 1h-23V52h25.4v45.5l1.5-1.5L493 52.9l1-1h31.9l-3.9 3.9-69 71v46h-2.1zM360.8 71.5c-2.9 0-5.4.5-7.8 1-2.4.5-4.4 1.5-6.9 2.4-2 1-3.9 2.4-5.9 3.9-2 1.5-3.4 3.4-4.9 4.9-1.5 2-2.9 3.9-3.9 6.4-1 2.4-2 4.4-2.4 6.9-1 2.4-1 4.9-1.5 7.3-.5 2.4-.5 4.9-.5 7.3 0 2.9 0 5.4.5 7.8.5 2.4 1 4.9 1.5 7.3.5 2.4 1.5 4.9 2.4 6.9 1 2 2.4 3.9 3.9 5.9 1.5 2 2.9 3.4 4.9 4.9 2 1.5 3.9 2.9 5.9 3.9 2 1 4.4 2 6.9 2.4 2.4.5 4.9 1 7.8 1 4.4 0 8.8-1 12.7-2.4 2-1 3.9-2 5.9-2.9 2-1 3.4-2.4 4.9-4.4 1.5-2 2.9-3.4 4.4-5.9 1.5-2 2.4-4.4 3.4-6.9 1-2.4 1.5-5.4 2-8.3.5-2.9 1-6.4 1-9.8 0-3.4-.5-6.9-1-9.8-.5-2.9-1.5-5.9-2.4-8.3-1-2.4-2.4-4.9-3.4-6.9-1.5-2-2.9-3.9-4.4-5.9-1.5-1.5-3.4-2.9-5.4-4.4-2-1-3.9-2.4-5.9-2.9-2-1-3.9-1.5-5.9-2-1.9.6-3.9.6-5.9.6zm-1.4 101.3c-4.4 0-8.3-.5-12.2-1-3.9-.5-7.8-2-11.3-3.4-3.4-1.5-6.9-3.4-10.3-5.4-3.4-2-5.9-4.4-8.8-7.3-2.4-2.4-4.9-5.4-6.9-8.8-2-2.9-3.9-6.4-5.4-10.3-1.5-3.4-2.4-7.3-3.4-11.3-.5-3.9-1-7.8-1-12.2s.5-8.8 1-13.2c1-4.4 2-8.3 3.4-12.2 1.5-3.9 3.4-7.3 5.4-10.8s4.4-6.4 7.3-8.8c2.9-2.9 5.9-4.9 8.8-7.3 2.9-2.4 6.9-3.9 10.8-5.4 3.9-1.5 7.8-2.4 11.8-3.4 3.9-1 8.3-1 13.2-1 4.4 0 8.3.5 12.2 1 3.9.5 7.8 2 11.3 2.9 3.9 1.5 6.9 2.9 10.3 4.9 2.9 2 5.9 4.4 8.8 6.9 2.4 2.4 4.9 5.4 6.9 8.8 2 2.9 3.9 6.4 5.4 10.3 1.5 3.9 2.4 7.3 3.4 11.8 1 4.4 1 8.3 1 12.7 0 9.8-1.5 18.1-4.4 25.9-2.9 7.8-7.8 14.7-13.7 20.1-2.9 2.4-5.9 4.9-8.8 6.9-3.4 2-6.9 3.4-10.3 4.9-3.9 1.5-7.3 2.4-11.8 2.9-3.9 1.3-7.8 1.8-12.7 1.8zM233.5 71.5c-2.9 0-5.4.5-7.8 1-2.4.5-4.4 1.5-6.9 2.4-2 1-3.9 2.4-5.9 3.9-2 1.5-3.4 3.4-4.9 4.9-1.5 2-2.4 3.9-3.9 6.4-1 2.4-2 4.4-2.4 6.9-1 2.4-1 4.9-1.5 7.3-.5 2.4-.5 4.9-.5 7.3 0 5.4.5 10.8 2 15.7.5 2.4 1.5 4.9 2.4 6.9 1 2 2.4 3.9 3.9 5.9 1.5 2 2.9 3.4 4.9 4.9 2 1.5 3.9 2.9 5.9 3.9 2 1 4.4 2 6.9 2.4 2.4.5 5.4 1 8.3 1 4.4 0 8.8-1 12.7-2.4 2-1 3.9-2 5.9-2.9 2-1 3.4-2.4 4.9-4.4 1.5-2 2.9-3.4 4.4-5.9 1.5-2 2.4-4.4 3.4-6.9 1-2.4 2-5.4 2.4-8.3.5-2.9 1-6.4 1-9.8 0-7.3-1-13.2-2.9-18.6-1-2.4-2.4-4.9-3.4-6.9-1.5-2-2.9-3.9-4.4-5.9-1.5-1.5-3.4-2.9-5.4-4.4-2-1-3.9-2.4-5.9-2.9-2-1-3.9-1.5-5.9-2-2.9.5-5.3.5-7.3.5zm-.9 101.3c-4.4 0-8.3-.5-12.2-1-3.9-.5-7.8-2-11.3-3.4-3.9-1.5-6.9-3.4-10.3-5.4s-5.9-4.4-8.8-7.3c-2.4-2.4-4.9-5.4-6.9-8.8-2-2.9-3.9-6.4-5.4-10.3-1.5-3.4-2.4-7.3-3.4-11.3-.5-3.9-1-7.8-1-12.2s.5-8.8 1-13.2c1-4.4 2-8.3 3.4-12.2 1.5-3.9 3.4-7.3 5.4-10.8 2-3.4 4.4-6.4 7.3-8.8 2.9-2.9 5.9-4.9 8.8-7.3 3.4-2 6.9-3.9 10.8-5.4 3.9-1.5 7.8-2.4 11.8-3.4s8.3-1 13.2-1c4.4 0 8.3.5 12.2 1 3.9.5 7.8 2 11.3 2.9 7.3 2.9 13.7 6.9 18.6 12.2 2.4 2.4 4.9 5.4 6.9 8.8 2 2.9 3.9 6.4 5.4 10.3 1.5 3.9 2.4 7.3 3.4 11.8 1 4.4 1 8.3 1 12.7 0 19.6-5.9 34.8-18.1 46-2.9 2.4-5.9 4.9-8.8 6.9-3.4 2-6.9 3.4-10.3 4.9-3.9 1.5-7.8 2.4-11.8 2.9-3.4.9-7.8 1.4-12.2 1.4zm-148.9-9.3V51.9h25.4V142l-25.5 24v-2.5zm86.7-9.8v19H90.1l22.5-21.1H169.8v2h.6zM496.9 304.5l-31.3-43.1 17.1-16.2 42.1 56.3 2.9 3.4h-30.4l-.4-.4zm-47 1h-23V184.6h25.4v45.5l.5-.5 1.5-1.5 38.2-43.1 1-1h31.9l-3.9 3.9-69 71v46h-2.4v.6zm-89.1-101.3c-2.9 0-5.4.5-7.8 1-2.4.5-4.9 1.5-6.9 2.4-2 1-3.9 2.4-5.9 3.9-2 1.5-3.4 3.4-4.9 4.9-1.5 2-2.4 3.9-3.9 6.4-1 2.4-2 4.4-2.4 6.9-1 2.4-1.5 4.9-1.5 7.3-.5 2.4-.5 4.9-.5 7.8 0 2.9 0 5.4.5 7.8.5 2.4 1 4.9 1.5 7.3.5 2.4 1.5 4.9 2.4 6.9 1 2 2.4 4.4 3.9 5.9 1.5 2 2.9 3.4 4.9 4.9 1.5 1.5 3.9 2.9 5.9 3.9 2 1 4.4 2 6.9 2.4 2.4.5 5.4 1 8.3 1 4.4 0 8.8-1 12.7-2.4 2-1 3.9-2 5.9-2.9 2-1 3.4-2.4 4.9-4.4 1.5-1.5 2.9-3.4 4.4-5.4 1-2 2.4-4.4 3.4-6.9 1-2.4 2-5.4 2.4-8.3.5-2.9 1-6.4 1-9.8s-.5-6.9-1-10.3c-.5-2.9-1.5-5.9-2.4-8.3-1-2.4-2.4-4.9-3.4-7.3-1.5-2-2.9-3.9-4.4-5.4-1.5-1.5-3.4-2.9-5.4-4.4-2-1-3.9-2.4-5.9-2.9-2-1-3.9-1.5-5.9-2-2.8.5-4.8 0-6.8 0zm-.9 101.3c-4.4 0-8.3-.5-12.2-1-3.9-1-7.8-2-11.3-3.4-3.4-1.5-6.9-3.4-10.3-5.4-3.4-2-5.9-4.4-8.8-6.9-2.4-2.4-4.9-5.4-6.9-8.8-2-2.9-3.9-6.4-5.4-10.3-1.5-3.4-2.4-7.3-3.4-11.3-1-3.9-1-8.3-1-12.2 0-4.4.5-8.8 1-13.2 1-4.4 2-8.3 3.4-12.2 1.5-3.9 3.4-7.3 5.4-10.8s4.4-6.4 7.3-8.8c2.9-2.4 5.9-4.9 8.8-7.3s6.9-3.9 10.8-5.4c3.9-1.5 7.8-2.4 11.8-3.4 3.9-.5 8.3-1 13.2-1 4.4 0 8.3.5 12.7 1 3.9.5 7.8 2 11.3 2.9 3.9 1.5 6.9 2.9 10.3 4.9 2.9 2 5.9 4.4 8.8 6.9 2.4 2.4 4.9 5.4 6.9 8.8 2 2.9 3.9 6.4 5.4 10.3 1.5 3.4 2.4 7.3 3.4 11.8 1 3.9 1 8.3 1 12.7 0 9.8-1.5 18.1-4.4 25.9-2.9 7.8-7.8 14.7-13.7 20.1-2.9 2.4-5.9 4.9-8.8 6.9-2.9 2-6.4 3.4-10.3 4.9s-7.8 2.4-11.8 2.9c-4.4.9-8.8 1.4-13.2 1.4zM233.5 204.2c-2.9 0-5.4.5-7.8 1s-4.9 1.5-6.9 2.4c-2 1-3.9 2.4-5.9 3.9-2 1.5-3.4 3.4-4.9 4.9-1.5 2-2.4 3.9-3.9 6.4-1 2.4-2 4.4-2.4 6.9-.5 2.4-1 4.9-1.5 7.3-.5 2.4-.5 4.9-.5 7.8 0 2.9 0 5.4.5 7.8.5 2.4 1 4.9 1.5 7.3.5 2.4 1.5 4.9 2.4 6.9s2.4 4.4 3.9 5.9c1.5 2 2.9 3.4 4.9 4.9 2 1.5 3.9 2.9 5.9 3.9 2 1 4.4 2 6.9 2.4 2.4.5 5.4 1 8.3 1 4.4 0 8.8-1 12.7-2.4 2-1 3.9-2 5.9-2.9 2-1 3.4-2.4 4.9-4.4 1.5-1.5 2.9-3.4 4.4-5.4 1-2 2.4-4.4 3.4-6.9 1-2.4 1.5-5.4 2.4-8.3.5-2.9.5-6.4.5-9.8s0-6.9-1-10.3c-.5-2.9-1.5-5.9-2.4-8.3-1-2.4-2.4-4.9-3.4-7.3-1.5-2-2.9-3.9-4.4-5.4-1.5-1.5-3.4-2.9-5.4-4.4-2-1-3.9-2.4-5.9-2.9-2-1-3.9-1.5-5.9-2-1.9.5-3.8 0-6.3 0zm-.9 101.3c-4.4 0-8.3-.5-12.2-1-3.9-1-7.8-2-11.8-3.4-3.4-1.5-6.9-3.4-10.3-5.4-3.4-2-5.9-4.4-8.8-6.9-2.4-2.4-4.9-5.4-6.9-8.8-2-2.9-3.9-6.4-5.4-10.3-1.5-3.4-2.4-7.3-3.4-11.3-1-3.9-1-8.3-1-12.2 0-4.4.5-8.8 1-13.2 1-4.4 2-8.3 3.4-12.2 1.5-3.9 3.4-7.3 5.4-10.8 2-3.4 4.4-6.4 7.3-8.8 2.9-2.4 5.9-4.9 8.8-7.3 3.4-2 6.9-3.9 10.8-5.4 3.9-1.5 7.8-2.4 11.8-3.4 3.9-.5 8.3-1 13.2-1 4.4 0 8.3.5 12.2 1 3.9.5 7.8 2 11.3 2.9 3.9 1.5 6.9 2.9 10.3 4.9 2.9 2 5.9 4.4 8.8 6.9 2.4 2.4 4.9 5.4 6.9 8.8 2 2.9 3.9 6.4 5.4 10.3 1.5 3.4 2.4 7.3 3.4 11.8 1 3.9 1 8.3 1 12.7 0 9.8-1.5 18.1-4.4 25.9-2.9 7.8-7.3 14.7-13.7 20.1-2.9 2.4-5.9 4.9-8.8 6.9-2.9 2-6.4 3.4-10.3 4.9-3.9 1.5-7.8 2.4-11.8 2.9-3.4.9-7.8 1.4-12.2 1.4zm-114.1-73.4c3.4 0 6.9-.5 9.3-1 2.9-.5 5.4-1.5 7.3-2.9 2-1 3.4-2.4 4.4-4.4 1-1.5 1.5-3.4 1.5-5.9s-.5-4.4-1.5-6.4c-1-1.5-2-2.9-3.9-3.9-2-1-3.9-2-6.9-2.4-2.9-.5-6.4-1-10.3-1h-8.8v27.9h8.9zm-5.9 73.4h-8.3c-2.4 0-4.9 0-7.3-.5-2 0-3.9-.5-5.4-.5h-1l19.6-18.6H122.4s2.9 0 4.4-.5c1.5 0 2.9-.5 4.4-1 1.5-.5 2.9-1 4.4-1.5 1.5-.5 2.4-1.5 3.9-2.4l2.9-2.9c1-1 1.5-2.4 2-3.9s.5-3.4.5-5.4c0-2-.5-3.9-1-5.4-.5-1.5-1-2.4-2.4-3.9-1-1-2.4-2-3.4-2.9-1-1-2.4-1.5-3.9-2s-2.9-1-4.9-1.5c-1.5-.5-2.9-.5-4.9-1-1.5 0-3.4-.5-4.4-.5h-11.2v21.5l-25.5 24V187h3.9c2.4 0 4.9-.5 7.8-1 2-.5 3.9-.5 6.4-1 2.4 0 4.9-.5 7.8-.5h7.8c4.4 0 8.3 0 12.2.5 3.9.5 6.9 1 9.8 1.5 2.9 1 5.4 1.5 7.8 2.9 2.4 1 4.9 2.4 6.9 4.4 2 1.5 3.4 2.9 4.9 4.4 1.5 1.5 2.9 3.4 3.9 5.4 1 2 2 3.9 2.4 6.4.5 2 1 4.4 1 6.9 0 2.9-.5 5.4-1.5 7.8-1 2.4-2.4 4.9-3.9 7.3-2 2.4-3.9 4.4-5.9 5.9-1 1-2.4 1.5-3.4 2.4 1.5.5 2.4 1.5 3.9 2.4s2.9 2 3.9 2.9c1.5 1 2.4 2.4 3.4 3.4 1 1.5 2.4 2.9 3.4 4.4 1 1.5 1.5 2.9 2.4 4.9 1 1.5 1.5 3.4 1.5 5.4.5 2 .5 3.9.5 5.9 0 2.4-.5 4.4-1 6.9s-1.5 4.4-2.4 6.4c-1 2-2.4 3.9-3.9 5.9-1.5 2-3.4 3.4-5.4 5.4-2.4 2-4.9 3.9-7.8 5.4-2.9 1.5-6.4 2.4-9.8 3.9-3.4 1-7.8 1.5-12.2 2h-15.1z"/></svg>